<?xml version="1.0" encoding="utf-8"?><svg version="1.1" id="Layer_1" xmlns="http://www.w3.org/2000/svg" xmlns:xlink="http://www.w3.org/1999/xlink" x="0px" y="0px" viewBox="0 0 122.879 100.426" enable-background="new 0 0 122.879 100.426" xml:space="preserve"><g><path d="M23.417,50.189V23.298h27.528v9.584H33.001v17.307H23.417L23.417,50.189z M14.279,0h94.323 c3.914,0,7.48,1.609,10.076,4.201l0.01-0.01c2.586,2.586,4.191,6.158,4.191,10.088v71.87c0,3.906-1.605,7.473-4.191,10.066 l-0.029,0.031c-2.596,2.58-6.154,4.18-10.057,4.18H14.279c-3.931,0-7.502-1.605-10.088-4.191c-0.108-0.107-0.209-0.219-0.305-0.334 C1.479,93.336,0,89.9,0,86.148v-71.87c0-3.932,1.605-7.503,4.19-10.088C6.776,1.605,10.346,0,14.279,0L14.279,0z M108.602,9.743 H14.279c-1.242,0-2.375,0.512-3.2,1.336c-0.824,0.825-1.336,1.958-1.336,3.2v71.87c0,1.164,0.436,2.225,1.149,3.02l0.187,0.178 c0.825,0.826,1.958,1.338,3.199,1.338h94.323c1.254,0,2.385-0.506,3.197-1.318l0.02-0.02c0.813-0.813,1.318-1.945,1.318-3.197 v-71.87c0-1.241-0.512-2.375-1.338-3.199l0.01-0.009l-0.01-0.01C110.988,10.248,109.855,9.743,108.602,9.743L108.602,9.743z M99.463,50.237v26.892H71.934v-9.584h17.945V50.237H99.463L99.463,50.237z"/></g></svg>